<?xml version="1.0" encoding="utf-8"?>
<!-- Generator: Adobe Illustrator 15.0.0, SVG Export Plug-In . SVG Version: 6.00 Build 0)  -->
<!DOCTYPE svg PUBLIC "-//W3C//DTD SVG 1.1//EN" "http://www.w3.org/Graphics/SVG/1.1/DTD/svg11.dtd">
<svg version="1.1" id="Layer_1" xmlns="http://www.w3.org/2000/svg" xmlns:xlink="http://www.w3.org/1999/xlink" x="0px" y="0px"
	 width="309.25px" height="81.55px" viewBox="0 0 309.25 81.55" style="enable-background:new 0 0 309.25 81.55;"
	 xml:space="preserve">
<style type="text/css">
<![CDATA[
	.st0{fill:#FFC425;}
	.st1{fill:#005DAA;}
	.st2{fill-rule:evenodd;clip-rule:evenodd;fill:#005DAA;}
]]>
</style>
<g>
	<path class="st0" d="M79.98,0L63.31,16.67c-2.24-0.49-6.8-0.74-13.42-0.8L65.77,0L79.98,0L79.98,0z"/>
	<path class="st0" d="M19.42,60.51L0,79.91V65.73l16.4-16.4l-0.01,1.1c0,3.32,0.53,6.32,1.94,8.63
		C18.66,59.59,19.02,60.07,19.42,60.51L19.42,60.51z"/>
	<path class="st2" d="M61.59,0L45.72,15.86c-6.22,0-10.38,0.1-12.48,0.29c-5.31,0.48-9.72,1.55-12.4,3.75
		c-3.37,2.73-4.58,7.3-4.58,12.57c0,3.29,0.41,6.19,1.47,8.46c0.31,0.67,0.67,1.27,1.07,1.82L0,61.54V0.01L61.59,0L61.59,0z"/>
	<path class="st1" d="M19.42,48.21h12.75c0.04,1.22,0.14,2.08,0.31,2.55c0.29,0.83,0.89,1.39,1.78,1.68c0.73,0.25,1.9,0.39,3.5,0.44
		l5.03,0.16c0.75,0.02,3.94-0.02,9.57-0.12c2.27-0.04,3.87-0.22,4.78-0.53c1.71-0.58,2.56-1.73,2.56-3.45c0-2.14-1.25-3.37-3.75-3.7
		c-0.62-0.09-2.81-0.14-6.56-0.14H37.64c-5.79,0-9.71-0.31-11.75-0.94c-2.58-0.79-4.4-2.29-5.44-4.49
		c-0.79-1.69-1.19-4.08-1.19-7.18c0-4.95,1.16-8.37,3.47-10.24c1.92-1.58,5.51-2.61,10.78-3.09c2.08-0.19,6.23-0.28,12.43-0.28
		c8.87,0,14.44,0.25,16.71,0.75c3.02,0.67,5.15,1.92,6.41,3.77c1.15,1.68,1.72,4.12,1.72,7.3v1.47H58.11
		c-0.02-2.18-1.19-3.51-3.5-3.98c-0.5-0.1-2.58-0.15-6.22-0.15c-5.11,0-9.04,0.09-11.79,0.26c-1.5,0.1-2.58,0.34-3.22,0.72
		c-0.92,0.54-1.38,1.48-1.38,2.8c0,1.79,0.92,2.92,2.75,3.4c0.79,0.21,2.54,0.31,5.26,0.31h12.11c0.81,0,2.94,0.06,6.38,0.19
		c4.01,0.15,6.83,0.56,8.48,1.25c3.73,1.56,5.6,5.44,5.6,11.62c0,5.73-1.56,9.45-4.69,11.15c-2.94,1.6-10.51,2.41-22.72,2.41
		c-9.31,0-15.42-0.3-18.31-0.91c-2.81-0.58-4.8-1.82-5.97-3.72c-1-1.62-1.5-3.97-1.5-7.04C19.39,50.12,19.4,49.37,19.42,48.21
		L19.42,48.21z"/>
	<polygon class="st1" points="76.26,19.11 123.54,19.11 123.54,28.78 89.06,28.78 89.06,36.14 121.61,36.14 121.61,44.58 
		89.06,44.58 89.06,52.14 123.98,52.14 123.98,61.8 76.26,61.8 76.26,19.11 	"/>
	<path class="st2" d="M127.26,61.8V19.11h32.68c3.52,0,5.73,0.03,6.62,0.09c2.62,0.19,4.76,0.69,6.4,1.5
		c2.4,1.19,4.04,3.19,4.94,6.01c0.62,1.96,0.94,4.63,0.94,8.01c0,7.59-1.6,12.42-4.81,14.49c-1.46,0.94-3.45,1.54-5.97,1.81
		c-1.73,0.19-4.06,0.28-7,0.28h-20.88v10.5H127.26L127.26,61.8z M140.19,40.94h18.88c2.4,0,4.05-0.27,4.97-0.81
		c1.25-0.73,1.88-2.18,1.88-4.35c0-2.59-0.5-4.3-1.5-5.13c-0.88-0.73-2.66-1.09-5.35-1.09h-18.88V40.94L140.19,40.94z"/>
	<path class="st1" d="M222.63,45.74h12.55v1.94c0,3.98-0.47,6.89-1.41,8.72c-1.21,2.4-3.54,4-7,4.81c-1.71,0.4-4.24,0.66-7.59,0.78
		c-2.29,0.08-6.83,0.13-13.62,0.13c-5.56,0-9.8-0.19-12.72-0.56c-5.54-0.71-9.03-3.17-10.47-7.37c-1-2.92-1.5-7.81-1.5-14.68
		c0-5.33,0.31-9.06,0.94-11.18c1.12-3.81,3.53-6.41,7.22-7.81c2.92-1.1,8.79-1.66,17.63-1.66c11.17,0,17.99,0.37,20.47,1.12
		c2.96,0.89,5.01,2.51,6.16,4.84c0.89,1.83,1.34,4.43,1.34,7.8v1.47h-12.42c-0.1-1.4-0.32-2.39-0.65-2.97
		c-0.65-1.11-2.52-1.78-5.62-1.98c-0.23-0.02-2.3-0.03-6.21-0.03c-6.2,0-9.87,0.1-10.99,0.31c-3,0.56-4.62,2.56-4.87,5.98
		c-0.08,1.16-0.12,3.01-0.12,5.55c0,4.7,0.59,7.65,1.78,8.85c0.96,0.98,2.82,1.59,5.59,1.84c0.94,0.08,2.96,0.12,6.06,0.12
		c7.31,0,11.62-0.28,12.93-0.84C221.74,50.2,222.59,48.48,222.63,45.74L222.63,45.74z"/>
	<path class="st2" d="M265.35,18.73c10.86,0,17.5,0.22,19.91,0.66c5.44,0.98,8.82,3.78,10.13,8.4c0.48,1.69,0.77,3.97,0.88,6.84
		c0.06,1.67,0.09,3.72,0.09,6.15c0,5.37-0.33,9.32-1,11.84c-1.48,5.6-5.79,8.68-12.94,9.25c-3.17,0.21-8.34,0.32-15.51,0.32
		c-6.19,0-9.95-0.03-11.29-0.09c-5.06-0.23-8.73-0.88-11-1.96c-3.19-1.5-5.2-4.5-6.04-9.02c-0.35-1.91-0.53-5.51-0.53-10.79
		c0-3.58,0.03-5.85,0.09-6.83c0.17-2.58,0.59-4.79,1.28-6.65c1.65-4.43,5.76-6.98,12.35-7.64
		C254.89,18.88,259.41,18.73,265.35,18.73L265.35,18.73z M267.17,29.16c-6.89,0-11.14,0.33-12.74,1c-1.5,0.62-2.47,2.1-2.9,4.43
		c-0.19,1-0.28,2.87-0.28,5.61c0,3.59,0.22,6.15,0.66,7.67c0.64,2.24,2.71,3.49,6.18,3.74c2.02,0.15,4.46,0.22,7.34,0.22
		c7.74,0,12.46-0.27,14.14-0.81c1.89-0.6,3.09-2.17,3.59-4.71c0.19-0.96,0.28-3.09,0.28-6.39c0-2.53-0.06-4.24-0.19-5.11
		c-0.35-2.45-1.35-4.04-3-4.77c-0.96-0.44-2.96-0.72-6.03-0.84C273.72,29.17,271.37,29.16,267.17,29.16L267.17,29.16z"/>
	<path class="st1" d="M20.6,75.9h2.59c0.01,0.25,0.03,0.42,0.06,0.52c0.06,0.17,0.18,0.28,0.36,0.34c0.15,0.05,0.39,0.08,0.71,0.09
		l1.02,0.03c0.15,0,0.8,0,1.94-0.03c0.46-0.01,0.79-0.04,0.97-0.11c0.35-0.12,0.52-0.35,0.52-0.7c0-0.43-0.25-0.68-0.76-0.75
		c-0.13-0.02-0.57-0.03-1.33-0.03H24.3c-1.18,0-1.97-0.06-2.39-0.19c-0.52-0.16-0.89-0.46-1.1-0.91c-0.16-0.34-0.24-0.83-0.24-1.46
		c0-1.01,0.23-1.7,0.7-2.08c0.39-0.32,1.12-0.53,2.19-0.63c0.42-0.04,1.26-0.06,2.53-0.06c1.8,0,2.93,0.05,3.4,0.15
		c0.61,0.13,1.05,0.39,1.3,0.77c0.23,0.34,0.35,0.84,0.35,1.48v0.3h-2.57c0-0.44-0.24-0.71-0.71-0.81c-0.1-0.02-0.52-0.03-1.26-0.03
		c-1.04,0-1.84,0.02-2.4,0.05c-0.31,0.02-0.52,0.07-0.65,0.15c-0.19,0.11-0.28,0.3-0.28,0.57c0,0.36,0.19,0.59,0.56,0.69
		c0.16,0.04,0.52,0.06,1.07,0.06h2.46c0.17,0,0.6,0.01,1.3,0.04c0.81,0.03,1.39,0.11,1.72,0.25c0.76,0.32,1.14,1.1,1.14,2.36
		c0,1.16-0.32,1.92-0.95,2.27c-0.6,0.33-2.13,0.49-4.61,0.49c-1.89,0-3.13-0.06-3.72-0.18c-0.57-0.12-0.98-0.37-1.21-0.76
		c-0.2-0.33-0.3-0.81-0.3-1.43C20.59,76.29,20.59,76.14,20.6,75.9L20.6,75.9z"/>
	<path class="st2" d="M38.62,76.73h2.2c-0.02,0.99-0.47,1.6-1.35,1.83c-0.52,0.14-1.36,0.2-2.52,0.2c-1.08,0-1.91-0.05-2.48-0.16
		c-0.75-0.14-1.27-0.52-1.56-1.13c-0.19-0.42-0.29-1.01-0.29-1.76c0-0.96,0.14-1.68,0.43-2.16c0.36-0.59,0.98-0.92,1.87-1
		c0.46-0.04,1.09-0.06,1.87-0.06c1.03,0,1.68,0.02,1.96,0.06c0.78,0.12,1.33,0.41,1.66,0.89c0.27,0.39,0.41,1.05,0.41,1.96v0.67
		H34.9v0.28c0,0.62,0.32,0.96,0.95,1.02c0.28,0.03,0.67,0.04,1.17,0.04c0.5,0,0.82-0.02,0.98-0.06
		C38.39,77.27,38.59,77.06,38.62,76.73L38.62,76.73z M38.64,74.86c0-0.5-0.21-0.82-0.62-0.94c-0.18-0.05-0.61-0.08-1.3-0.08
		c-0.82,0-1.34,0.09-1.56,0.28c-0.18,0.16-0.27,0.37-0.27,0.64v0.1H38.64L38.64,74.86z"/>
	<path class="st2" d="M47.8,78.66v-1.07c-0.17,0.57-0.54,0.93-1.13,1.09c-0.29,0.08-0.85,0.12-1.68,0.12
		c-1.34,0-2.19-0.13-2.56-0.39c-0.4-0.29-0.6-0.81-0.6-1.58c0-0.77,0.2-1.3,0.6-1.59c0.32-0.22,0.82-0.36,1.52-0.42
		c0.22-0.02,0.75-0.03,1.61-0.03c0.6,0,1.02,0.02,1.24,0.07c0.49,0.1,0.8,0.33,0.93,0.69v-0.67c0-0.28-0.02-0.49-0.07-0.6
		c-0.09-0.22-0.37-0.36-0.83-0.41c-0.1-0.01-0.43-0.02-1-0.02c-0.59,0-0.9,0-0.93,0.01c-0.38,0.05-0.58,0.21-0.6,0.49h-2.23
		c0.02-0.38,0.09-0.67,0.22-0.89c0.14-0.24,0.36-0.44,0.68-0.61c0.37-0.2,0.91-0.32,1.62-0.37c0.29-0.02,0.85-0.03,1.67-0.03
		c1.45,0,2.41,0.13,2.9,0.39c0.44,0.24,0.72,0.65,0.83,1.25c0.02,0.11,0.03,0.38,0.03,0.79v3.77H47.8L47.8,78.66z M45.81,76.05
		c-0.55,0-0.91,0.01-1.07,0.04c-0.46,0.08-0.69,0.3-0.69,0.63c0,0.36,0.23,0.57,0.69,0.65c0.15,0.03,0.58,0.04,1.28,0.04
		c0.58,0,0.96-0.02,1.17-0.06c0.4-0.08,0.6-0.29,0.6-0.64c0-0.35-0.26-0.56-0.79-0.64C46.88,76.06,46.48,76.05,45.81,76.05
		L45.81,76.05z"/>
	<polygon class="st1" points="51.55,78.66 51.55,69.99 53.78,69.99 53.78,78.66 51.55,78.66 	"/>
	<path class="st2" d="M55.3,78.66v-6.07h2.24v6.07H55.3L55.3,78.66z M55.3,71.61v-1.62h2.24v1.62H55.3L55.3,71.61z"/>
	<path class="st1" d="M59.04,78.66v-6.07h2.17V74c0.15-0.56,0.4-0.95,0.74-1.17c0.42-0.26,1.1-0.39,2.06-0.39
		c1.31,0,2.22,0.29,2.71,0.86c0.37,0.43,0.55,1.13,0.55,2.12v3.23h-2.24v-3.13c0-0.58-0.17-0.97-0.51-1.15
		c-0.23-0.12-0.68-0.18-1.34-0.18c-0.7,0-1.19,0.11-1.46,0.32c-0.3,0.25-0.46,0.71-0.46,1.39v2.74H59.04L59.04,78.66z"/>
	<path class="st2" d="M68.79,79.33h2.26c0.04,0.33,0.29,0.54,0.76,0.63c0.16,0.03,0.52,0.04,1.09,0.04c0.99,0,1.62-0.14,1.9-0.43
		c0.17-0.18,0.26-0.61,0.26-1.3v-0.9c-0.22,0.48-0.49,0.81-0.83,0.98c-0.4,0.21-1.09,0.31-2.07,0.31c-1.34,0-2.27-0.19-2.79-0.57
		c-0.35-0.26-0.59-0.65-0.7-1.18c-0.07-0.3-0.1-0.77-0.1-1.41c0-0.77,0.06-1.32,0.18-1.67c0.21-0.6,0.71-1.01,1.49-1.21
		c0.43-0.11,1.11-0.17,2.02-0.17c0.92,0,1.53,0.06,1.82,0.18c0.49,0.2,0.81,0.66,0.98,1.4v-1.44h2.18v5.47
		c0,0.77-0.04,1.31-0.11,1.63c-0.19,0.82-0.73,1.35-1.6,1.59c-0.61,0.17-1.59,0.26-2.93,0.26c-0.75,0-1.31-0.03-1.68-0.08
		C69.51,81.26,68.8,80.55,68.79,79.33L68.79,79.33z M72.75,74.12c-0.8,0-1.31,0.06-1.52,0.18c-0.3,0.17-0.45,0.56-0.45,1.2
		c0,0.73,0.16,1.17,0.47,1.32c0.24,0.12,0.76,0.18,1.54,0.18c1.02,0,1.64-0.09,1.85-0.26c0.24-0.2,0.36-0.59,0.36-1.2
		c0-0.47-0.06-0.8-0.18-0.98c-0.15-0.22-0.47-0.36-0.96-0.41C73.73,74.13,73.36,74.12,72.75,74.12L72.75,74.12z"/>
	<polygon class="st1" points="81.8,69.99 91.4,69.99 91.4,71.95 84.4,71.95 84.4,73.45 91.01,73.45 91.01,75.16 84.4,75.16 
		84.4,76.7 91.49,76.7 91.49,78.66 81.8,78.66 81.8,69.99 	"/>
	<path class="st2" d="M99.03,81.3v-3.68c-0.19,0.45-0.51,0.77-0.96,0.96c-0.35,0.15-0.96,0.22-1.83,0.22
		c-0.89,0-1.56-0.06-1.99-0.17c-0.76-0.2-1.24-0.61-1.44-1.22c-0.11-0.33-0.17-0.9-0.17-1.71c0-0.68,0.03-1.17,0.1-1.49
		c0.11-0.56,0.36-0.97,0.74-1.23c0.53-0.36,1.54-0.54,3.01-0.54c1.11,0,1.83,0.16,2.17,0.48c0.15,0.14,0.31,0.48,0.48,1.01v-1.35
		h2.13v8.71H99.03L99.03,81.3z M96.97,74.1c-0.83,0-1.36,0.07-1.58,0.2c-0.32,0.19-0.48,0.66-0.48,1.4c0,0.69,0.18,1.12,0.55,1.29
		c0.22,0.11,0.73,0.16,1.54,0.16c0.97,0,1.57-0.11,1.79-0.32c0.17-0.17,0.26-0.59,0.26-1.28c0-0.68-0.18-1.11-0.55-1.29
		C98.27,74.15,97.76,74.1,96.97,74.1L96.97,74.1z"/>
	<path class="st1" d="M110.91,72.59v6.07h-2.17v-1.41c-0.15,0.56-0.4,0.95-0.74,1.16c-0.42,0.26-1.1,0.39-2.06,0.39
		c-1.32,0-2.22-0.29-2.71-0.86c-0.37-0.43-0.55-1.14-0.55-2.12v-3.23h2.24v3.13c0,0.59,0.18,0.98,0.53,1.15
		c0.23,0.12,0.69,0.18,1.36,0.18c0.69,0,1.17-0.11,1.44-0.33c0.3-0.25,0.44-0.71,0.44-1.39v-2.74H110.91L110.91,72.59z"/>
	<path class="st2" d="M112.42,78.66v-6.07h2.24v6.07H112.42L112.42,78.66z M112.42,71.61v-1.62h2.24v1.62H112.42L112.42,71.61z"/>
	<path class="st2" d="M118.4,72.59v1.28c0.17-0.67,0.53-1.1,1.06-1.28c0.29-0.1,0.88-0.15,1.78-0.15c1.87,0,2.99,0.39,3.36,1.16
		c0.19,0.39,0.28,1.05,0.28,1.98c0,0.61-0.03,1.08-0.09,1.39c-0.1,0.54-0.31,0.94-0.62,1.2c-0.51,0.42-1.5,0.64-2.98,0.64
		c-0.73,0-1.29-0.06-1.66-0.17c-0.61-0.19-0.99-0.55-1.12-1.09v3.76h-2.24v-8.71H118.4L118.4,72.59z M120.65,74.1
		c-1.03,0-1.65,0.07-1.86,0.22c-0.26,0.19-0.39,0.63-0.39,1.3c0,0.35,0.02,0.6,0.05,0.74c0.06,0.27,0.2,0.46,0.42,0.56
		c0.25,0.12,0.83,0.19,1.72,0.19c0.89,0,1.43-0.08,1.62-0.24c0.24-0.2,0.36-0.64,0.36-1.34c0-0.63-0.15-1.05-0.46-1.24
		C121.9,74.17,121.41,74.1,120.65,74.1L120.65,74.1z"/>
	<path class="st1" d="M126.15,78.66v-6.07h2.17v1.24c0.18-0.56,0.51-0.95,1-1.15c0.36-0.15,0.88-0.23,1.57-0.23
		c1.55,0,2.5,0.47,2.85,1.41c0.15-0.57,0.49-0.96,1.02-1.18c0.38-0.15,0.91-0.23,1.61-0.23c1.1,0,1.91,0.2,2.42,0.58
		c0.59,0.44,0.88,1.2,0.88,2.27v3.36h-2.24v-3.19c0-0.53-0.15-0.88-0.44-1.06c-0.22-0.14-0.62-0.21-1.19-0.21
		c-0.66,0-1.11,0.1-1.36,0.29c-0.28,0.22-0.42,0.65-0.42,1.28v2.89h-2.24v-3.07c0-0.6-0.13-0.99-0.38-1.17
		c-0.2-0.15-0.62-0.22-1.26-0.22c-0.6,0-1.03,0.08-1.29,0.24c-0.32,0.2-0.48,0.59-0.48,1.15v3.07H126.15L126.15,78.66z"/>
	<path class="st2" d="M146.95,76.73h2.2c-0.02,0.99-0.47,1.6-1.35,1.83c-0.52,0.14-1.36,0.2-2.52,0.2c-1.08,0-1.91-0.05-2.48-0.16
		c-0.75-0.14-1.27-0.52-1.56-1.13c-0.19-0.42-0.29-1.01-0.29-1.76c0-0.96,0.14-1.68,0.43-2.16c0.36-0.59,0.98-0.92,1.87-1
		c0.46-0.04,1.09-0.06,1.87-0.06c1.03,0,1.68,0.02,1.96,0.06c0.78,0.12,1.33,0.41,1.66,0.89c0.27,0.39,0.41,1.05,0.41,1.96v0.67
		h-5.92v0.28c0,0.62,0.32,0.96,0.95,1.02c0.28,0.03,0.67,0.04,1.17,0.04c0.5,0,0.82-0.02,0.98-0.06
		C146.72,77.27,146.92,77.06,146.95,76.73L146.95,76.73z M146.97,74.86c0-0.5-0.21-0.82-0.62-0.94c-0.18-0.05-0.61-0.08-1.3-0.08
		c-0.82,0-1.34,0.09-1.56,0.28c-0.18,0.16-0.27,0.37-0.27,0.64v0.1H146.97L146.97,74.86z"/>
	<path class="st1" d="M150.41,78.66v-6.07h2.17V74c0.15-0.56,0.4-0.95,0.74-1.17c0.41-0.26,1.1-0.39,2.06-0.39
		c1.31,0,2.22,0.29,2.71,0.86c0.37,0.43,0.55,1.13,0.55,2.12v3.23h-2.23v-3.13c0-0.58-0.17-0.97-0.51-1.15
		c-0.23-0.12-0.68-0.18-1.34-0.18c-0.7,0-1.19,0.11-1.46,0.32c-0.3,0.25-0.46,0.71-0.46,1.39v2.74H150.41L150.41,78.66z"/>
	<path class="st1" d="M165.11,76.06h1.71v0.48c0,0.86-0.15,1.42-0.45,1.7c-0.4,0.38-1.15,0.57-2.25,0.57
		c-0.66,0-1.12-0.02-1.38-0.05c-0.55-0.07-0.97-0.23-1.26-0.47c-0.39-0.32-0.59-0.89-0.59-1.7v-2.47h-1.14v-1.52h1.14v-1.43h2.28
		v1.43h3.65v1.52h-3.65v2c0,0.41,0.06,0.69,0.17,0.83c0.13,0.17,0.4,0.26,0.79,0.26c0.38,0,0.63-0.05,0.76-0.16
		c0.14-0.12,0.22-0.37,0.22-0.74V76.06L165.11,76.06z"/>
	<path class="st2" d="M171.15,78.66v-8.67h6.64c0.71,0,1.16,0.01,1.35,0.02c0.53,0.04,0.97,0.14,1.3,0.3c0.49,0.24,0.82,0.65,1,1.22
		c0.13,0.4,0.19,0.94,0.19,1.63c0,1.54-0.33,2.52-0.98,2.94c-0.29,0.19-0.7,0.31-1.21,0.37c-0.35,0.04-0.82,0.06-1.42,0.06h-4.24
		v2.13H171.15L171.15,78.66z M173.78,74.42h3.83c0.49,0,0.82-0.06,1.01-0.17c0.25-0.15,0.38-0.44,0.38-0.88
		c0-0.53-0.1-0.87-0.3-1.04c-0.18-0.15-0.54-0.22-1.09-0.22h-3.83V74.42L173.78,74.42z"/>
	<path class="st1" d="M182.95,78.66v-6.07h2.15v1.35c0.1-0.28,0.17-0.47,0.23-0.57c0.1-0.19,0.23-0.35,0.38-0.46
		c0.4-0.31,1.03-0.47,1.88-0.47c0.97,0,1.64,0.22,2.01,0.67c0.27,0.33,0.41,0.92,0.41,1.75c0,0.07,0,0.2-0.01,0.39h-2.09
		c0-0.04,0-0.07,0-0.1c0-0.38-0.11-0.64-0.33-0.79c-0.18-0.12-0.46-0.19-0.86-0.19c-0.63,0-1.06,0.18-1.3,0.53
		c-0.15,0.23-0.23,0.6-0.23,1.13v2.8H182.95L182.95,78.66z"/>
	<path class="st2" d="M195.06,72.45c1.09,0,1.96,0.06,2.62,0.17c0.78,0.14,1.28,0.47,1.52,1.01c0.15,0.33,0.22,0.94,0.22,1.83
		c0,1.08-0.08,1.81-0.25,2.17c-0.25,0.56-0.88,0.92-1.88,1.07c-0.41,0.06-1.19,0.1-2.33,0.1c-1.81,0-2.97-0.2-3.48-0.6
		c-0.34-0.26-0.55-0.66-0.65-1.2c-0.04-0.24-0.06-0.71-0.06-1.41c0-1.02,0.11-1.72,0.32-2.1c0.28-0.48,0.88-0.8,1.82-0.95
		C193.34,72.48,194.06,72.45,195.06,72.45L195.06,72.45z M195.05,74.1c-0.82,0-1.35,0.07-1.58,0.2c-0.31,0.18-0.46,0.61-0.46,1.31
		c0,0.36,0.02,0.61,0.04,0.75c0.06,0.28,0.19,0.48,0.39,0.6c0.23,0.14,0.79,0.21,1.65,0.21c0.91,0,1.48-0.08,1.7-0.24
		c0.26-0.18,0.39-0.61,0.39-1.27c0-0.39-0.02-0.66-0.06-0.81c-0.1-0.38-0.38-0.62-0.86-0.71C196.11,74.11,195.71,74.1,195.05,74.1
		L195.05,74.1z"/>
	<path class="st2" d="M206.96,78.66v-1.33c-0.2,0.61-0.55,1.02-1.06,1.24c-0.36,0.16-0.92,0.23-1.68,0.23
		c-1.44,0-2.42-0.17-2.95-0.51c-0.37-0.24-0.62-0.62-0.73-1.15c-0.06-0.29-0.1-0.76-0.1-1.42c0-0.99,0.09-1.69,0.28-2.1
		c0.36-0.79,1.45-1.18,3.28-1.18c1.22,0,2.03,0.19,2.41,0.55c0.13,0.13,0.29,0.34,0.48,0.64v-3.65h2.24v8.67H206.96L206.96,78.66z
		 M204.72,74.1c-0.88,0-1.42,0.09-1.63,0.27c-0.26,0.22-0.39,0.65-0.39,1.29c0,0.72,0.17,1.16,0.51,1.31
		c0.25,0.11,0.76,0.17,1.54,0.17c0.98,0,1.58-0.09,1.8-0.26c0.25-0.19,0.37-0.6,0.37-1.22c0-0.74-0.15-1.19-0.46-1.36
		C206.23,74.16,205.65,74.1,204.72,74.1L204.72,74.1z"/>
	<path class="st1" d="M218.86,72.59v6.07h-2.17v-1.41c-0.15,0.56-0.4,0.95-0.74,1.16c-0.41,0.26-1.1,0.39-2.06,0.39
		c-1.32,0-2.22-0.29-2.71-0.86c-0.37-0.43-0.55-1.14-0.55-2.12v-3.23h2.24v3.13c0,0.59,0.18,0.98,0.53,1.15
		c0.23,0.12,0.69,0.18,1.36,0.18c0.69,0,1.17-0.11,1.44-0.33c0.3-0.25,0.45-0.71,0.45-1.39v-2.74H218.86L218.86,72.59z"/>
	<path class="st1" d="M228.5,74.91h-2.28c-0.04-0.4-0.29-0.65-0.76-0.75c-0.17-0.04-0.57-0.06-1.2-0.06c-0.68,0-1.14,0.06-1.37,0.18
		c-0.37,0.19-0.55,0.63-0.55,1.35c0,0.7,0.19,1.15,0.56,1.35c0.21,0.11,0.69,0.17,1.45,0.17c0.61,0,1-0.02,1.19-0.07
		c0.44-0.11,0.68-0.37,0.72-0.78h2.29c-0.01,1.12-0.45,1.85-1.31,2.19c-0.51,0.2-1.44,0.3-2.8,0.3c-1.77,0-2.93-0.21-3.47-0.62
		c-0.58-0.44-0.87-1.27-0.87-2.51c0-1.38,0.33-2.28,0.98-2.7c0.54-0.35,1.62-0.52,3.25-0.52c0.95,0,1.64,0.03,2.07,0.1
		c0.89,0.14,1.47,0.45,1.75,0.91C228.38,73.8,228.48,74.29,228.5,74.91L228.5,74.91z"/>
	<path class="st1" d="M234.77,76.06h1.71v0.48c0,0.86-0.15,1.42-0.44,1.7c-0.4,0.38-1.15,0.57-2.25,0.57
		c-0.66,0-1.12-0.02-1.38-0.05c-0.54-0.07-0.97-0.23-1.26-0.47c-0.39-0.32-0.59-0.89-0.59-1.7v-2.47h-1.14v-1.52h1.14v-1.43h2.27
		v1.43h3.65v1.52h-3.65v2c0,0.41,0.06,0.69,0.17,0.83c0.13,0.17,0.4,0.26,0.79,0.26c0.38,0,0.63-0.05,0.76-0.16
		c0.14-0.12,0.21-0.37,0.21-0.74V76.06L234.77,76.06z"/>
	<path class="st1" d="M237.48,76.79h2.36c0.01,0.34,0.29,0.54,0.85,0.62c0.09,0.01,0.5,0.02,1.21,0.02c0.52,0,0.86-0.01,1.02-0.04
		c0.48-0.08,0.72-0.25,0.72-0.52c0-0.28-0.22-0.44-0.65-0.47c-0.22-0.03-0.61-0.04-1.17-0.04h-1.11c-0.96,0-1.68-0.08-2.14-0.23
		c-0.69-0.23-1.04-0.77-1.04-1.62c0-0.99,0.38-1.6,1.14-1.81c0.58-0.17,1.59-0.25,3-0.25c1.68,0,2.75,0.13,3.23,0.39
		c0.43,0.23,0.66,0.71,0.69,1.43h-2.35c-0.03-0.23-0.26-0.36-0.68-0.42c-0.1-0.01-0.4-0.01-0.88-0.01c-0.54,0-0.89,0.01-1.05,0.03
		c-0.53,0.07-0.79,0.23-0.79,0.49c0,0.23,0.21,0.38,0.62,0.43c0.06,0.01,0.35,0.01,0.86,0.01h1.57c1.02,0,1.72,0.08,2.09,0.24
		c0.62,0.27,0.93,0.82,0.93,1.67c0,0.58-0.13,1.02-0.39,1.32c-0.26,0.3-0.69,0.5-1.27,0.61c-0.58,0.11-1.54,0.16-2.88,0.16
		c-0.81,0-1.33-0.01-1.56-0.03c-0.66-0.05-1.16-0.16-1.51-0.34C237.77,78.15,237.49,77.6,237.48,76.79L237.48,76.79z"/>
	<path class="st1" d="M258.48,75.4h2.55v0.39c0,0.81-0.09,1.4-0.29,1.77c-0.25,0.49-0.72,0.81-1.42,0.98
		c-0.35,0.08-0.86,0.13-1.54,0.16c-0.46,0.02-1.39,0.03-2.77,0.03c-1.13,0-1.99-0.04-2.58-0.11c-1.13-0.14-1.84-0.64-2.13-1.5
		c-0.2-0.59-0.3-1.59-0.3-2.98c0-1.08,0.06-1.84,0.19-2.27c0.23-0.77,0.72-1.3,1.47-1.59c0.59-0.22,1.79-0.34,3.58-0.34
		c2.27,0,3.65,0.08,4.16,0.23c0.6,0.18,1.02,0.51,1.25,0.98c0.18,0.37,0.27,0.9,0.27,1.58v0.3h-2.52c-0.02-0.29-0.07-0.49-0.13-0.6
		c-0.13-0.23-0.51-0.36-1.14-0.4c-0.05,0-0.47-0.01-1.26-0.01c-1.26,0-2,0.02-2.23,0.06c-0.61,0.11-0.94,0.52-0.99,1.21
		c-0.02,0.24-0.02,0.61-0.02,1.13c0,0.95,0.12,1.55,0.36,1.8c0.19,0.2,0.57,0.32,1.13,0.37c0.19,0.02,0.6,0.03,1.23,0.03
		c1.49,0,2.36-0.06,2.63-0.17C258.3,76.3,258.47,75.96,258.48,75.4L258.48,75.4z"/>
	<path class="st2" d="M266.59,72.45c1.09,0,1.96,0.06,2.62,0.17c0.78,0.14,1.28,0.47,1.52,1.01c0.15,0.33,0.22,0.94,0.22,1.83
		c0,1.08-0.08,1.81-0.25,2.17c-0.25,0.56-0.88,0.92-1.88,1.07c-0.41,0.06-1.19,0.1-2.33,0.1c-1.81,0-2.97-0.2-3.48-0.6
		c-0.34-0.26-0.55-0.66-0.65-1.2c-0.04-0.24-0.06-0.71-0.06-1.41c0-1.02,0.11-1.72,0.32-2.1c0.28-0.48,0.88-0.8,1.82-0.95
		C264.87,72.48,265.59,72.45,266.59,72.45L266.59,72.45z M266.58,74.1c-0.82,0-1.35,0.07-1.58,0.2c-0.31,0.18-0.46,0.61-0.46,1.31
		c0,0.36,0.02,0.61,0.04,0.75c0.06,0.28,0.19,0.48,0.39,0.6c0.23,0.14,0.79,0.21,1.65,0.21c0.91,0,1.48-0.08,1.7-0.24
		c0.26-0.18,0.39-0.61,0.39-1.27c0-0.39-0.02-0.66-0.06-0.81c-0.1-0.38-0.39-0.62-0.86-0.71C267.64,74.11,267.23,74.1,266.58,74.1
		L266.58,74.1z"/>
	<polygon class="st1" points="274.8,76.24 274.8,78.66 272.22,78.66 272.22,76.24 274.8,76.24 	"/>
	<path class="st1" d="M278.76,76.24v2.31c0,0.51-0.01,0.84-0.03,0.97c-0.05,0.37-0.16,0.66-0.34,0.89c-0.3,0.38-0.9,0.57-1.8,0.57
		h-0.77v-1.37c0.13,0.01,0.23,0.02,0.29,0.02c0.55,0,0.82-0.24,0.82-0.72c0-0.07,0-0.16-0.01-0.25h-0.78v-2.42H278.76L278.76,76.24z
		"/>
	<polygon class="st1" points="283.11,78.66 283.11,69.99 285.75,69.99 285.75,78.66 283.11,78.66 	"/>
	<path class="st1" d="M287.45,78.66v-6.07h2.17V74c0.15-0.56,0.4-0.95,0.74-1.17c0.42-0.26,1.1-0.39,2.06-0.39
		c1.31,0,2.22,0.29,2.71,0.86c0.37,0.43,0.55,1.13,0.55,2.12v3.23h-2.23v-3.13c0-0.58-0.17-0.97-0.52-1.15
		c-0.23-0.12-0.68-0.18-1.34-0.18c-0.7,0-1.19,0.11-1.46,0.32c-0.3,0.25-0.46,0.71-0.46,1.39v2.74H287.45L287.45,78.66z"/>
	<path class="st1" d="M305.32,74.91h-2.28c-0.04-0.4-0.29-0.65-0.76-0.75c-0.17-0.04-0.57-0.06-1.2-0.06
		c-0.68,0-1.14,0.06-1.37,0.18c-0.37,0.19-0.55,0.63-0.55,1.35c0,0.7,0.19,1.15,0.56,1.35c0.21,0.11,0.69,0.17,1.45,0.17
		c0.61,0,1-0.02,1.19-0.07c0.44-0.11,0.68-0.37,0.72-0.78h2.29c-0.01,1.12-0.45,1.85-1.31,2.19c-0.51,0.2-1.44,0.3-2.8,0.3
		c-1.77,0-2.93-0.21-3.47-0.62c-0.58-0.44-0.87-1.27-0.87-2.51c0-1.38,0.33-2.28,0.98-2.7c0.54-0.35,1.62-0.52,3.25-0.52
		c0.95,0,1.64,0.03,2.07,0.1c0.89,0.14,1.47,0.45,1.75,0.91C305.2,73.8,305.31,74.29,305.32,74.91L305.32,74.91z"/>
	<polygon class="st1" points="309.25,76.24 309.25,78.66 306.66,78.66 306.66,76.24 309.25,76.24 	"/>
	<path class="st2" d="M303.11,18.77c0.9,0,1.76,0.22,2.58,0.67c0.82,0.45,1.47,1.09,1.95,1.93c0.47,0.84,0.71,1.72,0.71,2.63
		c0,0.91-0.23,1.78-0.69,2.61c-0.46,0.83-1.11,1.47-1.94,1.93c-0.83,0.46-1.7,0.69-2.61,0.69s-1.78-0.23-2.61-0.69
		c-0.83-0.46-1.47-1.11-1.94-1.93c-0.46-0.83-0.69-1.7-0.69-2.61c0-0.92,0.24-1.79,0.71-2.63c0.47-0.84,1.12-1.48,1.95-1.93
		C301.35,19,302.21,18.77,303.11,18.77L303.11,18.77z M303.12,19.81c-0.72,0-1.41,0.18-2.07,0.54c-0.66,0.36-1.18,0.88-1.56,1.55
		c-0.38,0.67-0.57,1.38-0.57,2.12c0,0.73,0.19,1.43,0.56,2.1c0.37,0.66,0.89,1.18,1.55,1.56s1.36,0.56,2.09,0.56
		c0.73,0,1.43-0.19,2.1-0.56c0.66-0.37,1.18-0.89,1.55-1.56c0.38-0.66,0.56-1.36,0.56-2.1c0-0.74-0.19-1.44-0.57-2.12
		c-0.38-0.67-0.9-1.19-1.56-1.55S303.84,19.81,303.12,19.81L303.12,19.81z M300.75,26.81v-5.54h1.12c1.05,0,1.64,0,1.77,0.01
		c0.37,0.03,0.66,0.11,0.87,0.22c0.21,0.12,0.38,0.29,0.52,0.53s0.21,0.5,0.21,0.79c0,0.4-0.13,0.74-0.39,1.03
		c-0.26,0.28-0.63,0.46-1.1,0.53c0.17,0.06,0.3,0.13,0.39,0.21c0.09,0.08,0.22,0.22,0.38,0.43c0.04,0.05,0.18,0.28,0.41,0.68
		l0.65,1.12h-1.4l-0.46-0.9c-0.31-0.61-0.57-0.99-0.77-1.14c-0.2-0.16-0.46-0.24-0.77-0.24h-0.29v2.28H300.75L300.75,26.81z
		 M301.88,23.65h0.46c0.65,0,1.05-0.02,1.21-0.07s0.28-0.14,0.37-0.26c0.09-0.12,0.13-0.26,0.13-0.42c0-0.15-0.04-0.29-0.13-0.41
		c-0.09-0.12-0.21-0.2-0.38-0.26c-0.16-0.05-0.56-0.08-1.21-0.08h-0.46V23.65L301.88,23.65z"/>
</g>
</svg>
